<?xml version="1.0" encoding="UTF-8"?>
<svg id="Layer_1" data-name="Layer 1" xmlns="http://www.w3.org/2000/svg" viewBox="0 0 384.71 161.74">
  <defs>
    <style>
      .cls-1 {
        fill: #f3d156;
      }

      .cls-2 {
        fill: #171718;
      }
    </style>
  </defs>
  <g id="Generative_Object" data-name="Generative Object">
    <g>
      <path class="cls-1" d="M51.94,74.86c-.33,0-.64-.22-.73-.55-.63-2.12.15-4.41,1.94-5.7,1.79-1.29,4.21-1.31,6.02-.04s2.62,3.55,2.01,5.67c-.12.41-.53.65-.95.53-.41-.12-.64-.54-.53-.95.43-1.5-.14-3.11-1.42-4-1.28-.89-2.98-.88-4.24.03-1.26.91-1.81,2.53-1.37,4.02.12.41-.11.83-.52.95-.07.02-.15.03-.22.03Z"/>
      <path class="cls-1" d="M51.94,74.98c-.39,0-.74-.26-.85-.64-.65-2.17.15-4.51,1.99-5.84,1.83-1.32,4.31-1.34,6.17-.04,1.85,1.3,2.68,3.64,2.06,5.81-.07.23-.21.42-.42.54-.21.12-.45.14-.68.08-.23-.07-.42-.22-.53-.42-.12-.21-.14-.45-.08-.68.41-1.45-.14-3-1.37-3.87-1.23-.86-2.88-.85-4.1.02-1.22.88-1.75,2.44-1.32,3.88.14.47-.13.97-.6,1.11-.08.02-.17.04-.25.04ZM56.18,67.75c-1.04,0-2.08.32-2.96.96-1.75,1.26-2.51,3.5-1.9,5.56.1.33.47.53.8.43.34-.1.53-.46.43-.8-.46-1.54.11-3.21,1.42-4.16,1.31-.94,3.07-.95,4.39-.03,1.32.93,1.91,2.59,1.47,4.14-.05.16-.03.34.06.49.08.15.22.26.38.31.17.05.34.03.49-.05.15-.08.25-.22.3-.39.59-2.07-.2-4.3-1.96-5.54-.87-.62-1.9-.92-2.91-.92Z"/>
    </g>
    <g>
      <path class="cls-1" d="M51.25,92.14c-.28,0-.54-.15-.68-.41-.2-.38-.05-.84.32-1.04,1.15-.61,2.25-.99,3.38-1.16,2.24-.34,4.32-.1,6.34.72l.83.34c.39.16.58.61.42,1-.16.39-.61.58-1,.42l-.83-.34c-1.76-.72-3.57-.93-5.54-.63-.97.15-1.89.46-2.89.99-.11.06-.24.09-.36.09Z"/>
      <path class="cls-1" d="M51.25,92.27c-.33,0-.63-.18-.79-.47-.23-.44-.06-.98.37-1.21,1.16-.62,2.28-1,3.42-1.17,2.27-.34,4.36-.1,6.41.73l.83.34c.46.19.67.71.49,1.16-.19.45-.71.67-1.16.49l-.83-.34c-1.75-.71-3.55-.92-5.47-.62-.95.14-1.86.45-2.85.98-.13.07-.27.1-.42.1ZM56.2,89.52c-.62,0-1.26.05-1.91.15-1.12.17-2.21.54-3.34,1.14-.31.17-.43.55-.27.87.16.3.56.43.87.27,1.02-.54,1.95-.86,2.93-1.01,1.97-.3,3.81-.09,5.6.64l.83.34c.33.13.7-.03.84-.35.13-.33-.02-.7-.35-.84l-.83-.34c-1.42-.58-2.86-.86-4.37-.86Z"/>
    </g>
    <g>
      <path class="cls-1" d="M56.16,97.67c-.1,0-.19-.02-.28-.05-.62-.25-1.09-.62-1.54-.97-1.36-1.06-2.35-2.18-3.33-3.33-.67-.79-1.12-1.52-1.44-2.38-.08-.2-.16-.4-.24-.6-.21-.5-.42-1.01-.56-1.58-.08-.32-.15-.53-.2-.71-.18-.56-.26-.88-.18-1.95.07-.89.23-2.05.85-3.16,0-.02.02-.14.02-.22.01-.15.03-.3.06-.43.1-.41.52-.67.93-.56.41.1.66.51.57.92-.01.06-.02.13-.02.2-.02.23-.04.54-.21.84-.37.67-.57,1.45-.66,2.53-.06.83-.02.95.11,1.37.06.2.14.45.23.81.12.48.3.91.49,1.35.09.22.18.43.26.65.26.69.62,1.27,1.18,1.93.97,1.14,1.86,2.15,2.97,3.01.43.34.74.58,1.05.75.51-.27,1.56-1.13,2.17-1.74l.55-.55c.31-.32.59-.65.86-.98.16-.2.33-.4.5-.59.47-.53.81-1.07,1.08-1.7l.24-.54c.2-.44.39-.86.5-1.29.1-.42.2-.72.27-.96.17-.55.21-.69.14-1.58-.08-.95-.29-1.73-.67-2.45-.15-.29-.16-.58-.16-.77-.22-.36-.09-.86.28-1.07.36-.22.85-.13,1.07.24.18.3.19.6.19.81.46.98.73,1.98.83,3.12.1,1.13,0,1.48-.2,2.15-.07.22-.15.49-.25.88-.14.57-.37,1.07-.59,1.56l-.23.51c-.33.78-.76,1.46-1.34,2.12-.16.18-.32.37-.47.56-.31.37-.61.74-.96,1.09l-.55.55s-2.04,2-3.12,2.24c-.05.01-.11.02-.16.02Z"/>
      <path class="cls-1" d="M56.16,97.79c-.12,0-.23-.02-.33-.06-.63-.25-1.1-.62-1.55-.98-1.38-1.08-2.38-2.21-3.37-3.36-.68-.8-1.14-1.54-1.47-2.41-.07-.19-.15-.37-.23-.56l-.02-.04c-.21-.5-.42-1.01-.57-1.59-.08-.33-.15-.55-.2-.7-.18-.58-.27-.9-.18-2,.07-.9.23-2.08.86-3.21,0,0,0-.06,0-.12v-.05c.02-.15.03-.31.07-.45.06-.24.2-.43.41-.56.2-.12.44-.16.67-.1.23.05.42.2.55.4.13.2.16.44.11.68-.01.04-.01.09-.02.14v.04c-.02.25-.05.57-.23.9-.36.65-.56,1.41-.64,2.47-.06.8-.03.91.1,1.32.07.22.15.46.23.81.11.44.28.86.45,1.27l.03.07c.1.23.18.44.26.65.26.68.6,1.25,1.16,1.89.97,1.13,1.85,2.14,2.95,2.99.38.3.68.54.98.7.5-.29,1.49-1.08,2.09-1.68l.55-.55c.31-.31.58-.64.85-.97l.04-.04c.15-.19.31-.38.47-.56.46-.52.79-1.05,1.06-1.67l.24-.54c.2-.44.39-.85.49-1.27.11-.43.2-.73.27-.97.17-.54.2-.67.13-1.53-.08-.93-.29-1.69-.66-2.4-.16-.3-.17-.6-.17-.79-.11-.19-.13-.42-.08-.65.06-.24.21-.45.42-.57.21-.13.46-.17.7-.11.23.05.42.19.54.39.19.32.2.64.21.84.47,1.02.74,2.02.83,3.14.1,1.16,0,1.51-.2,2.2l-.02.05c-.06.21-.14.47-.23.82-.14.58-.37,1.09-.59,1.58l-.23.51c-.34.8-.77,1.48-1.36,2.15-.16.18-.31.37-.47.56-.3.36-.61.74-.97,1.09l-.55.56c-.36.35-2.15,2.04-3.19,2.27-.06.01-.13.02-.19.02ZM50.05,81.82c-.11,0-.22.03-.32.09-.15.09-.26.23-.3.4-.03.13-.04.27-.06.41v.05c-.02.13-.02.17-.03.2-.62,1.11-.77,2.25-.84,3.13-.08,1.05,0,1.36.17,1.9.06.19.13.41.21.72.14.57.35,1.07.55,1.56l.02.04c.08.19.16.37.23.56.32.84.76,1.57,1.42,2.34.98,1.15,1.97,2.27,3.31,3.32.46.36.91.72,1.51.95.12.05.25.06.38.03.99-.22,2.85-1.99,3.06-2.2l.56-.56c.34-.35.65-.72.95-1.08.16-.19.31-.38.47-.56.57-.65.99-1.31,1.31-2.08l.23-.51c.22-.49.45-.98.58-1.54.09-.36.17-.62.23-.83l.02-.05c.2-.66.29-1,.19-2.11-.09-1.1-.35-2.07-.82-3.08v-.05c-.01-.19-.02-.47-.18-.75-.08-.14-.22-.24-.38-.28-.17-.04-.36-.01-.51.08-.15.09-.26.24-.3.42-.04.17-.02.34.07.49l.02.03v.03c0,.18,0,.45.15.71.39.74.61,1.54.69,2.5.08.91.03,1.08-.14,1.62-.07.24-.16.53-.27.96-.11.45-.3.87-.5,1.32l-.24.54c-.27.64-.62,1.19-1.1,1.73-.16.18-.31.37-.47.55l-.03.04c-.27.33-.55.67-.87.99l-.55.55c-.65.65-1.7,1.49-2.2,1.76l-.06.03-.06-.03c-.33-.18-.66-.43-1.07-.76-1.11-.87-2.01-1.88-2.98-3.02-.57-.67-.93-1.26-1.2-1.96-.08-.21-.17-.42-.25-.62l-.04-.09c-.17-.41-.35-.84-.46-1.3-.08-.35-.16-.58-.23-.8-.13-.42-.18-.57-.12-1.42.08-1.1.29-1.9.67-2.58.15-.28.18-.57.2-.79v-.04c0-.06.01-.13.03-.18.04-.17.01-.34-.08-.49-.09-.15-.23-.25-.4-.29-.05-.01-.1-.02-.16-.02Z"/>
    </g>
    <g>
      <path class="cls-1" d="M49.77,88.06c-.29,0-.57-.16-.7-.45-.18-.38,0-.84.37-1.02l1.15-.53c2.62-1.22,7.89-1.33,10.62-.23l1.75.7c.39.16.58.6.43,1-.16.4-.6.59-1,.43l-1.75-.7c-2.34-.94-7.17-.84-9.41.2l-1.15.53c-.1.05-.21.07-.32.07Z"/>
      <path class="cls-1" d="M49.77,88.18c-.35,0-.66-.2-.81-.52-.1-.22-.11-.46-.03-.68.08-.22.25-.4.46-.5l1.15-.53c2.65-1.23,7.96-1.34,10.72-.23l1.75.7c.46.18.68.7.5,1.16-.09.22-.26.4-.48.49-.22.09-.46.09-.68,0l-1.75-.7c-2.31-.93-7.1-.83-9.31.2l-1.15.53c-.12.06-.24.08-.37.08ZM56.31,85.2c-2.11,0-4.26.33-5.65.98l-1.15.53c-.16.07-.27.2-.33.36-.06.16-.05.33.02.49.14.31.54.46.85.31l1.15-.53c2.26-1.04,7.14-1.15,9.5-.2l1.75.71c.16.07.33.06.49,0,.16-.07.28-.19.35-.35.13-.33-.03-.7-.36-.83l-1.75-.7c-1.26-.5-3.05-.75-4.87-.75Z"/>
    </g>
    <g>
      <path class="cls-1" d="M48.38,83.32c-.28,0-.56-.16-.69-.43-.19-.38-.03-.84.35-1.03,1.29-.63,3.32-3.32,3.84-4.79l.43-1.21c.14-.4.58-.61.98-.47.4.14.61.58.46.98l-.43,1.21c-.57,1.61-2.81,4.77-4.61,5.65-.11.05-.22.08-.34.08Z"/>
      <path class="cls-1" d="M48.38,83.45c-.34,0-.65-.19-.8-.5-.1-.21-.12-.46-.04-.68.08-.23.24-.41.45-.51,1.27-.62,3.27-3.27,3.78-4.72l.43-1.21c.17-.46.67-.7,1.14-.54.46.17.71.68.54,1.14l-.43,1.21c-.58,1.63-2.85,4.83-4.68,5.72-.13.06-.26.09-.39.09ZM53.05,75.48c-.26,0-.51.16-.61.43l-.43,1.21c-.53,1.49-2.6,4.22-3.91,4.86-.15.08-.27.21-.32.37-.06.16-.04.34.03.49.15.31.53.45.86.29,1.77-.87,3.98-3.98,4.55-5.58l.43-1.21c.12-.33-.06-.7-.39-.82-.07-.03-.14-.04-.21-.04Z"/>
    </g>
    <g>
      <path class="cls-1" d="M42.23,85.65c-.86,0-1.91-.19-2.77-.94-.78-.69-1.14-1.77-1.01-3.05.12-1.15.59-2.27,1.43-3.43,1.41-1.95,3.45-3.4,5.91-4.21,1.55-.51,3.11-.75,4.54-.69l1.51.07c.2,0,.39.09.52.24l.71.75c.54.56,1.16.95,1.92,1.39,1.13.66,1.64.42,2.96-.37.7-.42,1.27-.98,1.98-1.74.14-.15.33-.24.53-.25l2.06-.1c.26-.01.5.01.74.04l.2.02c1.72.15,3.36.61,4.87,1.38,2.72,1.38,4.76,3.65,5.46,6.08.13.44.18.87.17,1.4-.05,1.94-1.32,3.21-3.4,3.4-.25.02-.48.01-.71,0h-.25c-.74-.03-1.4-.2-1.97-.36-1.57-.45-2.91-1.25-4.12-2.06-.07-.05-.38-.04-.61-.03-.63,0-1.57.03-2.86-.45-.96-.37-2.09-.56-3.34-.58-.12,0-.26,0-.39,0-.27.01-.54.02-.83,0h0c-.09-.02-.18,0-.31.02-.12.01-.24.03-.36.03-.53.01-1.94.28-2.44.5-1.28.54-2.21.5-2.88.47-.37-.02-.6-.02-.7.05-1.63,1.12-3.08,1.81-4.56,2.18-.46.14-.91.18-1.35.23l-.24.03c-.13,0-.27.01-.41.01ZM49.9,74.85c-1.14,0-2.38.21-3.63.62-2.14.71-3.92,1.97-5.14,3.66-.68.94-1.06,1.82-1.15,2.69-.06.54-.02,1.29.49,1.74.6.53,1.44.59,2.03.55l.22-.02c.38-.04.73-.07,1.1-.18,1.34-.33,2.63-.95,4.1-1.96.53-.37,1.09-.34,1.63-.32.59.03,1.26.05,2.22-.36.7-.3,2.29-.6,3.01-.62.08,0,.15,0,.22-.02.18-.02.4-.04.66-.02h0c.2.02.39,0,.59,0,.16,0,.32-.02.48-.01,1.43.02,2.73.25,3.86.68,1.01.38,1.71.37,2.28.35.52-.01,1.02-.02,1.49.29,1.11.74,2.33,1.47,3.69,1.86.6.17,1.08.28,1.58.29h.3c.16.02.32.03.5.02,1.96-.18,1.99-1.48,2-1.91,0-.37-.02-.64-.11-.94-.58-2.03-2.33-3.94-4.68-5.13-1.34-.68-2.79-1.09-4.31-1.22l-.22-.02c-.17-.02-.33-.04-.51-.03l-1.74.08c-.58.61-1.26,1.27-2.1,1.78-1.31.79-2.55,1.53-4.52.38-.84-.49-1.58-.95-2.26-1.65l-.5-.52-1.2-.05c-.12,0-.25,0-.37,0Z"/>
      <path class="cls-1" d="M42.23,85.78c-1.15,0-2.11-.33-2.85-.97-.82-.72-1.19-1.84-1.05-3.16.12-1.17.6-2.31,1.46-3.49,1.43-1.97,3.49-3.44,5.97-4.26,1.58-.52,3.16-.75,4.59-.7l1.51.07c.23.01.45.11.61.28l.71.75c.53.56,1.14.93,1.89,1.36,1.07.63,1.54.41,2.83-.37.69-.41,1.26-.96,1.95-1.71.16-.17.38-.28.61-.29l2.06-.1c.25-.01.48.01.7.03l.26.03c1.73.15,3.38.62,4.91,1.39,2.75,1.39,4.82,3.69,5.52,6.16.13.46.18.9.17,1.43-.05,2.01-1.36,3.32-3.51,3.52-.26.02-.5.01-.73,0h-.25c-.73-.03-1.39-.19-2-.37-1.58-.45-2.93-1.26-4.16-2.08-.06-.02-.38-.01-.53-.01h-.04c-.63,0-1.58.02-2.86-.46-.95-.36-2.06-.55-3.3-.57-.09,0-.19,0-.29,0h-.09c-.27.01-.55.03-.85,0-.08-.01-.16,0-.27.01-.14.02-.27.03-.39.03-.51.01-1.91.28-2.4.49-1.31.55-2.25.51-2.94.48-.24-.01-.55-.03-.62.03-1.64,1.13-3.1,1.83-4.6,2.2-.46.14-.92.19-1.36.23l-.24.03c-.14,0-.28.01-.42.01ZM49.9,73.44c-1.28,0-2.68.24-4.06.7-2.43.8-4.45,2.24-5.84,4.17-.83,1.15-1.29,2.25-1.41,3.37-.13,1.24.21,2.28.96,2.95.69.6,1.59.91,2.68.91.14,0,.27,0,.4-.01l.24-.03c.43-.04.88-.09,1.32-.23,1.48-.37,2.91-1.05,4.53-2.16.14-.1.39-.09.78-.07.66.03,1.57.07,2.83-.46.51-.22,1.94-.49,2.49-.51.12,0,.23-.01.35-.03.13-.02.24-.04.35-.01.27.03.53.02.8,0h.09c.1,0,.21,0,.3,0,1.26.02,2.4.22,3.38.59,1.23.47,2.16.45,2.77.45h.04c.41-.01.59,0,.68.05,1.21.8,2.54,1.6,4.09,2.04.55.16,1.2.33,1.93.35h.25c.23.02.46.03.7,0,2.01-.18,3.24-1.41,3.28-3.27.01-.51-.04-.93-.16-1.36-.69-2.4-2.71-4.64-5.4-6-1.5-.76-3.12-1.22-4.82-1.37l-.26-.03c-.22-.02-.44-.04-.66-.03l-2.06.1c-.17,0-.33.08-.44.21-.71.77-1.29,1.33-2,1.76-1.31.78-1.88,1.07-3.09.37-.76-.44-1.39-.83-1.94-1.41l-.71-.75c-.11-.12-.27-.19-.44-.2l-1.51-.07c-.14,0-.29,0-.44,0ZM42.23,84.25c-.58,0-1.3-.12-1.83-.59-.55-.49-.6-1.27-.53-1.85.09-.89.48-1.79,1.17-2.75,1.24-1.71,3.04-2.99,5.21-3.7,1.39-.46,2.78-.68,4.04-.62l1.25.05.53.56c.67.7,1.4,1.15,2.23,1.63,1.91,1.11,3.11.39,4.39-.38.85-.51,1.52-1.17,2.07-1.76l.03-.04h.05s1.74-.08,1.74-.08c.16-.01.31,0,.46.02l.3.03c1.54.13,3,.55,4.36,1.24,2.38,1.2,4.15,3.15,4.74,5.21.09.31.12.59.11.98-.03,1.22-.74,1.9-2.11,2.03-.18.02-.35,0-.51,0h-.3c-.52-.02-1-.13-1.61-.31-1.38-.39-2.61-1.14-3.73-1.88-.43-.29-.91-.29-1.42-.27-.58.02-1.3.03-2.33-.36-1.12-.42-2.4-.65-3.82-.67-.15,0-.28,0-.42,0h-.13c-.17.01-.35.02-.53,0-.25-.02-.46,0-.63.02-.08,0-.15.02-.23.02-.71.02-2.27.31-2.96.61-1,.42-1.71.39-2.28.37-.52-.02-1.06-.05-1.56.3-1.48,1.02-2.8,1.65-4.14,1.98-.36.11-.7.14-1.06.18l-.28.03c-.09,0-.19,0-.29,0ZM49.9,74.97c-1.12,0-2.36.21-3.59.62-2.12.7-3.88,1.95-5.08,3.61-.67.92-1.04,1.78-1.12,2.63-.06.52-.02,1.22.45,1.63.57.5,1.36.56,1.94.52l.28-.03c.35-.04.68-.07,1.02-.17,1.31-.33,2.6-.95,4.06-1.95.56-.39,1.17-.37,1.71-.34.57.03,1.22.05,2.17-.35.72-.3,2.33-.61,3.06-.63.07,0,.14,0,.2-.02.19-.02.41-.05.69-.02.17.02.33.01.5,0h.13c.14-.01.29-.02.44-.01,1.44.02,2.76.26,3.9.69.99.38,1.68.36,2.23.35.52-.01,1.06-.03,1.56.31,1.1.73,2.31,1.46,3.66,1.85.59.17,1.05.27,1.55.29h.3c.17.02.32.03.48.02,1.85-.17,1.88-1.34,1.89-1.79,0-.36-.02-.62-.1-.9-.57-1.99-2.3-3.88-4.62-5.05-1.32-.67-2.76-1.08-4.27-1.21l-.31-.03c-.14-.02-.27-.04-.41-.02l-1.69.08c-.56.59-1.24,1.25-2.09,1.77-1.34.8-2.61,1.56-4.65.38-.84-.49-1.59-.96-2.28-1.68l-.47-.49-1.15-.05c-.12,0-.24,0-.37,0Z"/>
    </g>
    <g>
      <path class="cls-1" d="M58.22,69.45c-.12,0-.24-.03-.35-.09-.38-.2-.52-.66-.33-1.03l.25-.49c1.06-2.04,2.03-3.53,4.8-3.99.18-.08.33-.11.45-.13.4-.14.89.05,1.03.45.15.4,0,.83-.41.97-.1.04-.21.06-.32.09-.08.05-.31.11-.4.13-2.21.34-2.85,1.38-3.79,3.2l-.25.49c-.14.26-.4.41-.68.41Z"/>
      <path class="cls-1" d="M58.22,69.57c-.14,0-.28-.03-.41-.1-.44-.23-.61-.77-.38-1.2l.25-.49c1.08-2.08,2.06-3.58,4.87-4.06.17-.07.32-.11.43-.13.47-.17,1.03.07,1.2.52.18.48-.03.97-.48,1.13-.09.03-.19.06-.32.09-.11.06-.33.12-.42.13-2.15.33-2.78,1.35-3.7,3.14l-.25.49c-.15.3-.46.48-.79.48ZM63.32,63.79c-.08,0-.16.01-.23.04h-.04c-.11.03-.25.06-.4.13h-.03c-2.71.46-3.66,1.92-4.71,3.94l-.25.49c-.16.31-.04.7.28.86.31.16.71.03.86-.27l.25-.49c.96-1.86,1.62-2.92,3.88-3.27.09-.01.3-.08.36-.11h.04c.12-.04.21-.06.3-.09.32-.12.46-.46.33-.81-.09-.25-.36-.41-.64-.41Z"/>
    </g>
    <g>
      <path class="cls-1" d="M64.02,83.37c-.14,0-.27-.04-.4-.11l-.85-.52c-.53-.32-.88-.74-1.21-1.14l-.24-.28c-1.25-1.43-2.19-3.1-2.79-4.96-.13-.4.09-.84.5-.97.4-.13.83.09.96.5.53,1.66,1.37,3.15,2.48,4.42l.26.3c.28.34.52.62.84.82l.85.52c.36.22.48.69.25,1.05-.14.24-.4.37-.65.37Z"/>
      <path class="cls-1" d="M64.02,83.5c-.16,0-.32-.04-.46-.13l-.85-.52c-.55-.33-.9-.75-1.24-1.16l-.24-.28c-1.26-1.44-2.21-3.12-2.81-5-.15-.47.11-.97.58-1.12.47-.15.97.11,1.12.58.53,1.64,1.36,3.12,2.46,4.38l.26.3c.27.33.51.61.81.79l.85.52c.42.26.55.81.3,1.23-.16.27-.45.43-.76.43ZM59.26,75.49c-.06,0-.13,0-.19.03-.16.05-.3.17-.37.32-.08.15-.09.33-.04.49.59,1.84,1.52,3.5,2.76,4.91l.24.28c.33.39.67.8,1.18,1.11l.85.52c.29.18.7.08.88-.21.18-.3.09-.7-.21-.88l-.85-.52c-.33-.2-.58-.5-.87-.84l-.26-.3c-1.12-1.28-1.97-2.79-2.51-4.46-.09-.27-.34-.44-.61-.44Z"/>
    </g>
    <g>
      <path class="cls-1" d="M54.14,69.45c-.27,0-.53-.14-.67-.39l-.41-.72c-1.08-1.91-1.53-2.71-4.18-3.11-.42-.07-.71-.46-.64-.87.06-.42.47-.7.87-.64,3.38.52,4.14,1.85,5.28,3.87l.41.72c.21.37.08.84-.29,1.05-.12.07-.25.1-.38.1Z"/>
      <path class="cls-1" d="M54.14,69.57c-.32,0-.62-.17-.78-.45l-.41-.72c-1.09-1.93-1.5-2.65-4.09-3.05-.49-.08-.82-.53-.75-1.02.08-.48.53-.81,1.01-.75,3.44.53,4.21,1.88,5.37,3.94l.41.72c.12.21.15.45.08.68-.06.23-.21.42-.42.54-.13.08-.28.12-.44.12ZM49.01,63.83c-.31,0-.6.23-.65.54-.05.35.19.68.54.73,2.7.41,3.19,1.28,4.27,3.17l.41.72c.17.3.58.41.87.24.15-.08.26-.22.3-.39.05-.17.02-.34-.06-.49l-.41-.72c-1.13-1.99-1.87-3.3-5.19-3.81-.03,0-.06,0-.08,0Z"/>
    </g>
  </g>
  <g id="Generative_Object-2" data-name="Generative Object">
    <g>
      <path class="cls-2" d="M33.54,122c.53,0,1.02-.34,1.17-.87.66-2.21-.16-4.61-2.03-5.96-1.87-1.35-4.4-1.37-6.29-.04-1.89,1.33-2.74,3.71-2.1,5.93.19.65.86,1.02,1.51.84.65-.19,1.03-.86.84-1.51-.35-1.22.12-2.53,1.15-3.25,1.04-.73,2.43-.72,3.45.02,1.03.74,1.48,2.05,1.11,3.27-.19.65.18,1.33.82,1.52.12.03.23.05.35.05Z"/>
      <path class="cls-2" d="M33.54,122.12c-.13,0-.26-.02-.39-.06-.34-.1-.63-.33-.8-.65s-.21-.68-.11-1.03c.35-1.16-.08-2.42-1.07-3.13-.98-.71-2.31-.72-3.31-.02-.99.7-1.44,1.95-1.11,3.12.1.35.06.71-.12,1.03-.18.32-.46.54-.81.64-.72.2-1.47-.22-1.67-.93-.65-2.27.22-4.71,2.15-6.07,1.93-1.36,4.52-1.34,6.44.04,1.92,1.38,2.75,3.83,2.08,6.09-.17.57-.7.96-1.29.96ZM29.52,116.47c.64,0,1.27.2,1.81.58,1.07.77,1.54,2.14,1.16,3.41-.08.28-.05.58.09.84.14.26.37.45.65.53.1.03.21.05.31.05.48,0,.92-.32,1.05-.79.64-2.16-.15-4.5-1.98-5.82-1.83-1.32-4.3-1.33-6.15-.04-1.85,1.3-2.67,3.63-2.05,5.79.17.58.77.92,1.36.76.28-.08.52-.27.66-.52.14-.26.18-.55.1-.84-.36-1.27.12-2.63,1.2-3.39.54-.38,1.16-.56,1.79-.56Z"/>
    </g>
    <g>
      <path class="cls-2" d="M34.19,138.41c.44,0,.86-.24,1.08-.65.32-.6.09-1.34-.51-1.66-1.14-.6-2.24-.98-3.37-1.15-2.22-.33-4.27-.1-6.28.72l-.79.32c-.63.25-.93.97-.67,1.6.26.63.97.93,1.6.67l.79-.32c1.59-.65,3.23-.84,5-.57.86.13,1.68.41,2.59.89.18.1.38.14.57.14Z"/>
      <path class="cls-2" d="M34.19,138.53c-.22,0-.44-.05-.63-.16-.89-.47-1.7-.75-2.55-.88-1.74-.27-3.35-.08-4.93.56l-.79.32c-.69.28-1.48-.06-1.76-.74-.28-.69.05-1.48.74-1.76l.79-.32c2.03-.82,4.1-1.06,6.35-.73,1.14.17,2.26.55,3.41,1.16.66.35.91,1.17.56,1.83-.23.44-.69.72-1.19.72ZM29.5,137.13c.51,0,1.02.04,1.55.12.87.13,1.71.42,2.62.91.16.08.34.13.51.13.41,0,.78-.22.97-.58.28-.54.08-1.2-.46-1.49-1.13-.6-2.22-.97-3.33-1.14-2.2-.33-4.23-.1-6.22.71l-.79.32c-.56.23-.83.87-.61,1.43.23.56.87.83,1.43.61l.79-.32c1.14-.46,2.3-.69,3.51-.69Z"/>
    </g>
    <g>
      <path class="cls-2" d="M29.27,143.63c-1.21-.27-3.19-2.24-3.21-2.26l-.53-.53c-.34-.34-.64-.7-.94-1.07-.14-.17-.29-.35-.43-.52-.59-.67-1.02-1.35-1.35-2.14-.07-.16-.14-.31-.21-.47-.22-.48-.45-.98-.59-1.57-.09-.36-.16-.61-.23-.81-.21-.69-.31-1.07-.21-2.23.09-1.09.35-2.05.79-2.93,0-.21.01-.61.25-1.01.35-.58,1.1-.77,1.68-.42.52.31.72.93.52,1.48h0c0,.22-.01.57-.21.95-.33.63-.51,1.31-.58,2.14-.06.75-.04.83.11,1.31.07.24.16.53.26.94.09.37.26.74.44,1.14.08.17.16.35.23.53.23.54.53,1.02.94,1.48.17.19.32.38.48.57.25.31.5.61.79.9l.53.53c.45.46,1.24,1.11,1.71,1.42.18-.12.36-.26.55-.41l.14-.11c1.01-.79,1.84-1.73,2.74-2.79.49-.58.8-1.08,1.03-1.68.08-.21.17-.42.25-.63.17-.42.34-.81.44-1.21.09-.36.16-.6.23-.8.11-.35.13-.42.08-1.11-.07-.96-.24-1.62-.56-2.19-.21-.38-.24-.76-.26-1v-.12c-.16-.65.24-1.31.9-1.47.65-.15,1.32.25,1.48.91.04.15.06.32.07.48,0,.03,0,.06,0,.09.6,1.11.75,2.25.82,3.12.08,1.06,0,1.42-.19,2.04-.05.16-.11.36-.18.64-.14.58-.35,1.08-.55,1.57-.08.19-.15.37-.23.56-.33.87-.78,1.61-1.46,2.4-.95,1.12-1.91,2.2-3.1,3.13l-.14.11c-.44.34-.93.73-1.58.99-.15.06-.3.09-.45.09-.09,0-.18,0-.26-.03ZM22.43,128.97s0,0,0,0c0,0,0,0,0,0Z"/>
      <path class="cls-2" d="M29.54,143.78c-.1,0-.19-.01-.29-.03h0c-1.26-.28-3.25-2.27-3.27-2.29l-.53-.53c-.34-.33-.63-.69-.95-1.08l-.06-.07c-.12-.15-.25-.3-.37-.44-.59-.68-1.03-1.37-1.37-2.17-.07-.16-.14-.31-.21-.47-.21-.46-.45-.98-.6-1.59-.08-.34-.16-.59-.22-.79-.22-.72-.32-1.11-.22-2.3.09-1.1.35-2.07.79-2.95,0-.23.02-.63.27-1.04.38-.64,1.21-.85,1.85-.46.55.33.79,1,.58,1.61,0,.23-.02.59-.22.99-.32.61-.5,1.28-.57,2.09-.06.72-.04.79.1,1.26.07.24.16.53.27.95.09.36.26.75.43,1.12l.02.04c.07.16.15.33.22.49.23.53.52.99.92,1.45.17.19.33.38.48.57l.02.02c.24.29.49.59.76.86l.53.53c.43.43,1.15,1.03,1.62,1.36.15-.1.3-.22.46-.35l.16-.13c1.01-.78,1.83-1.72,2.72-2.77.48-.57.79-1.06,1.01-1.65.08-.21.17-.42.26-.63.17-.42.34-.81.43-1.19.09-.35.16-.59.23-.81.11-.34.13-.4.08-1.06-.07-.95-.24-1.59-.55-2.14-.23-.41-.26-.79-.28-1.05v-.12c-.17-.7.27-1.43.99-1.6.72-.17,1.46.28,1.63,1,.04.17.06.35.07.5v.06c.61,1.13.76,2.27.83,3.14.08,1.08,0,1.45-.2,2.09-.06.18-.12.37-.18.63-.15.59-.36,1.1-.56,1.59-.08.19-.15.37-.23.56-.34.88-.79,1.64-1.48,2.44-.95,1.12-1.91,2.2-3.12,3.14l-.13.11c-.44.35-.94.74-1.61,1.01-.16.06-.33.1-.5.1ZM22.49,128.98s0,.09,0,.12v.05c-.44.86-.69,1.81-.79,2.89-.1,1.14,0,1.52.2,2.19.07.22.14.47.23.82.14.58.37,1.07.58,1.54.07.16.14.31.21.47.33.78.75,1.45,1.33,2.11.13.15.25.3.38.45l.06.07c.32.39.61.73.94,1.06l.53.53s1.98,1.97,3.15,2.22h0c.21.05.44.03.64-.05.64-.25,1.12-.64,1.55-.97l.14-.11c1.19-.93,2.14-2,3.08-3.11.67-.78,1.11-1.51,1.44-2.37.07-.19.15-.37.23-.56.2-.49.41-.98.55-1.56.07-.27.13-.47.18-.62.2-.64.27-.99.19-2.02-.07-.85-.22-1.97-.81-3.07v-.05s-.02-.06-.02-.06c-.01-.17-.03-.34-.07-.49-.14-.59-.74-.95-1.33-.81-.58.14-.95.73-.81,1.32v.14c.03.24.06.6.26.96.33.59.5,1.26.58,2.24.05.69.03.78-.09,1.16-.07.21-.14.45-.23.79-.1.41-.26.8-.44,1.22-.09.21-.18.42-.26.63-.23.62-.55,1.13-1.05,1.72-.91,1.06-1.74,2-2.76,2.8l-.14.11c-.21.16-.39.3-.56.42l-.07.05-.07-.05c-.48-.32-1.27-.98-1.73-1.44l-.53-.53c-.28-.28-.53-.59-.78-.88l-.02-.02c-.16-.19-.31-.38-.48-.57-.42-.48-.72-.96-.96-1.52-.07-.17-.14-.33-.22-.49l-.02-.04c-.17-.38-.35-.78-.45-1.16-.1-.42-.19-.7-.26-.93-.15-.49-.18-.59-.12-1.36.07-.85.26-1.54.6-2.19.19-.35.19-.69.2-.89v-.04c.19-.5,0-1.05-.46-1.33-.52-.31-1.2-.14-1.51.38-.18.3-.22.61-.23.82h.06s-.06,0-.06,0ZM22.43,128.97v.12-.12ZM22.43,128.97v.12-.12Z"/>
    </g>
    <g>
      <path class="cls-2" d="M35.61,134.53c.46,0,.91-.26,1.11-.71.28-.61.02-1.34-.6-1.63l-1.09-.51c-2.59-1.2-7.78-1.31-10.48-.23l-1.67.67c-.63.25-.93.97-.68,1.59.25.63.96.93,1.59.68l1.66-.67c2.08-.84,6.55-.74,8.53.18l1.09.51c.17.08.34.11.51.11Z"/>
      <path class="cls-2" d="M35.61,134.66c-.2,0-.39-.04-.57-.13l-1.09-.51c-1.96-.91-6.38-1-8.43-.17l-1.66.67c-.69.27-1.48-.06-1.76-.75-.13-.33-.13-.7.01-1.03.14-.33.4-.59.74-.72l1.67-.67c2.73-1.1,7.96-.98,10.58.23l1.09.51c.33.15.58.42.7.76.12.34.11.71-.04,1.03-.22.48-.7.78-1.23.78ZM29.39,133.04c1.77,0,3.58.26,4.66.76l1.09.51c.15.07.3.1.46.1.43,0,.82-.25,1-.64.12-.27.14-.56.03-.84s-.3-.5-.57-.62l-1.09-.51c-2.56-1.19-7.71-1.3-10.38-.23l-1.67.67c-.27.11-.49.32-.6.59s-.12.57,0,.84c.23.56.87.83,1.43.61l1.66-.67c.97-.39,2.46-.58,3.97-.58Z"/>
    </g>
    <g>
      <path class="cls-2" d="M36.92,130.04c.45,0,.89-.25,1.1-.69.3-.61.05-1.34-.56-1.64-1.08-.53-2.95-3-3.4-4.27l-.41-1.15c-.23-.64-.92-.97-1.56-.74-.64.23-.97.93-.74,1.56l.41,1.15c.59,1.65,2.79,4.74,4.63,5.64.17.09.36.13.54.13Z"/>
      <path class="cls-2" d="M36.92,130.16c-.21,0-.41-.05-.59-.14-1.87-.92-4.1-4.05-4.69-5.71l-.41-1.15c-.12-.34-.1-.71.05-1.03.15-.33.43-.57.77-.69.71-.25,1.48.12,1.72.82l.41,1.15c.45,1.25,2.28,3.68,3.34,4.2.67.33.94,1.14.62,1.81-.23.47-.69.76-1.21.76ZM32.49,121.61c-.12,0-.24.02-.37.06-.28.1-.5.3-.62.56s-.14.56-.04.84l.41,1.15c.58,1.63,2.75,4.68,4.57,5.57.15.08.31.11.48.11.42,0,.8-.24.99-.62.27-.54.04-1.21-.5-1.47-1.1-.54-3-3.04-3.46-4.34l-.41-1.15c-.16-.45-.59-.73-1.04-.73Z"/>
    </g>
    <g>
      <path class="cls-2" d="M42.32,132.23l-.22-.02c-.44-.05-.9-.09-1.35-.23-1.47-.37-2.9-1.05-4.41-2.1-.07-.01-.28,0-.44,0-.65.03-1.63.07-2.95-.49-.39-.17-1.66-.42-2.15-.43-.13,0-.25-.02-.38-.03-.07,0-.15-.03-.19-.02-.3.03-.58.02-.87.01-.11,0-.22-.01-.34,0-1.13.02-2.14.19-3,.52-1.31.5-2.27.48-2.9.46-.12,0-.28,0-.37,0-1.16.77-2.45,1.54-3.98,1.97-.56.16-1.23.33-1.99.35h-.22c-.24.02-.49.03-.75,0-2.25-.2-3.62-1.59-3.67-3.71-.01-.55.04-1.01.18-1.48.7-2.43,2.74-4.71,5.44-6.08,1.49-.75,3.11-1.21,4.8-1.36l.17-.02c.26-.03.51-.05.79-.04l1.95.09c.32.01.63.16.85.39.63.69,1.15,1.19,1.77,1.56,1.23.74,1.49.82,2.3.35.69-.4,1.25-.74,1.71-1.23l.68-.71c.22-.23.52-.36.83-.38l1.43-.06c1.4-.05,2.96.17,4.49.68,2.43.8,4.45,2.25,5.85,4.18.85,1.18,1.33,2.32,1.45,3.5.14,1.38-.25,2.56-1.12,3.32-.76.67-1.76,1.01-2.96,1.01-.14,0-.29,0-.44-.01ZM22.7,129.9h0ZM22.83,129.84h0,0ZM35.15,122l-.94.04-.34.35c-.68.72-1.42,1.18-2.25,1.66-2.13,1.24-3.55.39-4.8-.36-.79-.47-1.42-1.06-1.96-1.63l-1.46-.07c-.15,0-.28.01-.42.03l-.21.02c-1.38.12-2.7.5-3.91,1.11-2.11,1.07-3.67,2.78-4.19,4.57-.07.23-.09.44-.08.74.01.62.2,1.21,1.44,1.32.14.01.28,0,.41,0h.29c.42-.02.84-.12,1.37-.27,1.23-.35,2.35-1.03,3.37-1.7.57-.38,1.17-.36,1.7-.36.52.01,1.11.03,1.98-.3,1.13-.43,2.42-.66,3.83-.68.17,0,.33,0,.49.01.16,0,.31.02.47,0,0,0,0,0,0,0,.31-.03.56,0,.75.02.05,0,.1.01.15.01.73.02,2.31.31,3.04.62.81.34,1.37.32,1.9.3.54-.02,1.21-.05,1.86.39,1.34.92,2.51,1.49,3.75,1.8.29.09.58.12.96.16l.19.02c.38.03,1.1,0,1.56-.4.34-.3.34-.9.3-1.23-.08-.74-.4-1.49-1-2.31-1.1-1.52-2.7-2.65-4.64-3.29-1.13-.37-2.25-.57-3.28-.57-.12,0-.23,0-.34,0Z"/>
      <path class="cls-2" d="M42.76,132.37c-.15,0-.3,0-.45-.01h0s-.22-.02-.22-.02c-.45-.05-.91-.1-1.37-.24-1.47-.36-2.92-1.05-4.42-2.1-.06,0-.2,0-.39,0-.69.03-1.68.06-3.01-.5-.38-.16-1.62-.41-2.1-.42-.13,0-.26-.02-.39-.03h-.06s-.08-.02-.09-.02c-.31.03-.59.03-.9.01-.11,0-.22-.01-.33,0-1.12.02-2.11.19-2.96.51-1.34.51-2.31.49-2.95.47-.1,0-.24,0-.32,0-1.15.76-2.43,1.53-3.98,1.97-.57.16-1.24.34-2.02.36h-.22c-.23.02-.48.03-.77,0-2.32-.21-3.74-1.64-3.79-3.83-.01-.56.04-1.03.18-1.52.71-2.47,2.77-4.77,5.5-6.15,1.51-.76,3.14-1.23,4.85-1.38l.17-.02c.28-.03.53-.05.81-.04l1.95.09c.36.02.69.17.93.44.63.68,1.14,1.17,1.74,1.54,1.21.73,1.41.79,2.18.35.68-.39,1.23-.73,1.68-1.21l.68-.71c.24-.25.57-.4.92-.42l1.43-.06c1.44-.05,3.01.18,4.54.69,2.45.81,4.5,2.27,5.92,4.23.87,1.2,1.35,2.36,1.47,3.56.15,1.42-.27,2.64-1.17,3.43-.79.69-1.81,1.04-3.04,1.04ZM42.33,132.11c1.35.09,2.47-.24,3.3-.97.84-.73,1.22-1.88,1.08-3.22-.12-1.15-.59-2.28-1.43-3.44-1.39-1.91-3.39-3.34-5.79-4.14-1.5-.5-3.04-.73-4.45-.67l-1.43.06c-.28.01-.55.13-.75.34l-.68.71c-.47.5-1.04.85-1.74,1.25-.87.51-1.17.41-2.43-.35-.63-.38-1.15-.88-1.79-1.58-.2-.22-.47-.34-.76-.36l-1.95-.09c-.27-.01-.51,0-.77.04l-.17.02c-1.68.15-3.28.6-4.76,1.35-2.67,1.36-4.68,3.6-5.38,6-.13.46-.19.91-.17,1.44.05,2.05,1.38,3.39,3.56,3.58.27.02.51.01.73,0h.22c.75-.03,1.4-.2,1.96-.35,1.53-.44,2.8-1.2,3.94-1.96l.06-.02s.05,0,.09,0v-.05s0,0,0,0v.05c.09,0,.2,0,.29,0,.62.02,1.56.04,2.85-.46.88-.33,1.9-.51,3.04-.53.11,0,.23,0,.34,0,.31.01.57.02.85-.01.02-.01.08,0,.17,0h.05c.12.02.24.03.37.04.51.01,1.78.27,2.19.44,1.27.54,2.23.5,2.87.48.16,0,.41-.02.5,0l.05.02c1.49,1.04,2.92,1.72,4.37,2.08.45.13.89.18,1.32.23l.23.02ZM42.77,129.93c-.1,0-.18,0-.24,0l-.19-.02c-.36-.04-.67-.07-.98-.16-1.25-.31-2.42-.87-3.79-1.81-.61-.42-1.26-.39-1.78-.37-.56.02-1.12.04-1.95-.31-.72-.31-2.28-.6-3-.61-.04,0-.09,0-.13-.01l-.03-.13v.12c-.18-.02-.41-.04-.68-.02h0s-.05,0-.05,0c-.15.02-.3,0-.44,0h-.04c-.16,0-.32,0-.48-.01-1.4.02-2.68.25-3.79.67-.9.34-1.53.33-2.03.31h-.05c-.5,0-1.06-.01-1.58.34-1.03.68-2.15,1.36-3.4,1.72-.54.15-.96.25-1.4.26h-.36c-.11.02-.23.03-.36.02-1.35-.12-1.54-.8-1.56-1.45,0-.32.02-.54.09-.78.53-1.83,2.12-3.56,4.25-4.65,1.23-.62,2.56-1,3.96-1.12l.25-.03c.12-.01.26-.03.39-.02l1.51.07.03.04c.47.49,1.11,1.12,1.93,1.61,1.22.73,2.61,1.57,4.67.36.82-.48,1.55-.93,2.22-1.63l.37-.39.99-.04c1.13-.04,2.4.15,3.66.56,1.96.65,3.58,1.8,4.7,3.34.61.84.94,1.61,1.02,2.37.04.35.04,1-.34,1.33-.42.37-1.03.44-1.41.44ZM36.18,127.29c.47,0,1.01.07,1.53.42,1.34.92,2.49,1.47,3.71,1.78.29.09.58.12.94.16l.19.02c.29.02,1.01.03,1.47-.37.31-.27.29-.88.26-1.12-.07-.71-.39-1.45-.97-2.25-1.08-1.5-2.67-2.62-4.58-3.25-1.23-.41-2.48-.6-3.57-.55l-.89.04-.3.31c-.69.73-1.44,1.19-2.28,1.68-2.19,1.28-3.64.4-4.92-.37-.83-.5-1.48-1.12-1.95-1.61l-1.41-.06c-.12,0-.24,0-.36.02l-.25.03c-1.37.12-2.67.49-3.87,1.1-2.08,1.05-3.62,2.73-4.13,4.49-.06.22-.08.42-.08.71.01.52.13,1.09,1.33,1.2.11,0,.22,0,.33,0l.36-.02c.41,0,.82-.1,1.34-.25,1.22-.35,2.32-1.02,3.33-1.69.59-.39,1.19-.38,1.72-.38h.05c.48.01,1.08.03,1.93-.29,1.14-.43,2.44-.67,3.88-.69.17,0,.33,0,.5.01h.04c.13,0,.25.02.38,0h0s.05,0,.05,0c.3-.03.55,0,.74.02h.05s.08.01.11.02c.74.02,2.34.32,3.09.63.78.33,1.31.31,1.83.29.13,0,.26-.01.41-.01Z"/>
    </g>
    <g>
      <path class="cls-2" d="M27.58,116.86c.19,0,.38-.04.56-.14.6-.31.84-1.05.52-1.65l-.24-.46c-1.03-1.99-2.05-3.56-4.86-4.04-.19-.08-.35-.11-.47-.13-.64-.23-1.35.09-1.58.73-.23.63.08,1.34.72,1.57.12.04.25.07.38.1.13.08.26.1.41.13,1.77.27,2.32,1.01,3.23,2.78l.24.46c.22.42.65.66,1.09.66Z"/>
      <path class="cls-2" d="M27.58,116.99c-.51,0-.97-.28-1.2-.73l-.24-.46c-.91-1.76-1.42-2.45-3.14-2.71-.15-.02-.29-.05-.44-.13-.11-.02-.24-.05-.37-.1-.69-.26-1.05-1.04-.79-1.73.26-.7,1.04-1.06,1.74-.8.08.01.26.05.47.13,2.84.49,3.87,2.08,4.92,4.1l.24.46c.17.32.2.69.09,1.03s-.35.62-.67.79c-.19.1-.41.15-.62.15ZM22.68,110.49c-.46,0-.88.28-1.04.72-.21.57.08,1.2.64,1.41.1.04.21.07.36.1h.04c.12.08.23.1.36.12,1.83.28,2.39,1.04,3.32,2.84l.24.46c.19.37.56.59.98.59.17,0,.35-.04.5-.12.54-.28.75-.94.47-1.48l-.24-.46c-1.02-1.96-2.01-3.5-4.77-3.98-.21-.08-.38-.12-.47-.13-.13-.05-.27-.07-.4-.07Z"/>
    </g>
    <g>
      <path class="cls-2" d="M22.07,130.08c.22,0,.44-.06.64-.18l.81-.49c.57-.35.95-.8,1.28-1.19l.21-.25c1.23-1.41,2.16-3.05,2.75-4.88.21-.64-.15-1.33-.79-1.54-.65-.2-1.33.15-1.54.79-.49,1.53-1.23,2.85-2.26,4.02l-.24.29c-.25.3-.45.54-.68.68l-.81.49c-.58.35-.76,1.11-.41,1.68.23.38.63.59,1.05.59Z"/>
      <path class="cls-2" d="M22.07,130.21c-.48,0-.91-.24-1.15-.65-.39-.63-.19-1.47.45-1.86l.81-.49c.21-.13.4-.36.65-.65l.25-.29c1.02-1.16,1.75-2.46,2.23-3.98.23-.71.99-1.1,1.7-.87.34.11.62.35.79.67.16.32.19.69.08,1.03-.59,1.85-1.53,3.51-2.77,4.93l-.21.25c-.32.38-.72.86-1.31,1.22l-.81.49c-.21.13-.46.2-.7.2ZM26.59,121.61c-.47,0-.9.3-1.05.76-.5,1.55-1.25,2.88-2.28,4.06l-.24.29c-.26.31-.46.55-.71.7l-.81.49c-.52.32-.68,1-.36,1.51.2.33.55.53.94.53.2,0,.4-.06.57-.16l.81-.49c.56-.34.93-.78,1.25-1.17l.21-.25c1.22-1.4,2.14-3.02,2.72-4.84.09-.28.07-.58-.07-.84s-.36-.46-.64-.54c-.11-.04-.22-.05-.33-.05Z"/>
    </g>
    <g>
      <path class="cls-2" d="M31.46,116.86c.43,0,.84-.22,1.07-.62l.39-.69c1-1.76,1.34-2.36,3.61-2.71.67-.1,1.13-.73,1.02-1.4-.1-.67-.73-1.13-1.4-1.02-3.45.53-4.3,2.03-5.37,3.92l-.39.68c-.33.59-.13,1.34.46,1.67.19.11.4.16.6.16Z"/>
      <path class="cls-2" d="M31.46,116.99c-.23,0-.46-.06-.67-.18-.65-.37-.87-1.19-.51-1.84l.39-.68c1.09-1.92,1.95-3.45,5.46-3.99.36-.05.71.03,1,.25.29.21.48.53.54.88.11.73-.39,1.43-1.13,1.54-2.21.34-2.52.88-3.52,2.65l-.39.69c-.24.42-.69.68-1.17.68ZM36.34,110.54c-.06,0-.11,0-.17.01-3.39.52-4.22,1.99-5.28,3.86l-.39.68c-.3.53-.12,1.2.41,1.5.17.09.35.14.54.14.4,0,.76-.21.96-.56l.39-.69c.99-1.76,1.37-2.41,3.7-2.77.6-.09,1.01-.66.92-1.25-.04-.29-.2-.54-.44-.72-.19-.14-.42-.21-.65-.21Z"/>
    </g>
  </g>
  <g>
    <path class="cls-2" d="M55.28,113.07l-26.69-15.41c-.57-.33-.92-.93-.92-1.59v-30.82c0-.66.35-1.26.92-1.59l26.69-15.41c.57-.33,1.27-.33,1.84,0l26.69,15.41c.57.33.92.93.92,1.59v30.82c0,.66-.35,1.26-.92,1.59l-26.69,15.41c-.28.16-.6.25-.92.25s-.63-.08-.92-.25ZM81.05,66.31l-24.86-14.35-24.86,14.35v28.7s24.86,14.35,24.86,14.35l24.86-14.35v-28.7Z"/>
    <path class="cls-2" d="M56.2,113.44c-.34,0-.68-.09-.98-.26l-26.69-15.41c-.61-.35-.98-1-.98-1.7v-30.82c0-.7.38-1.35.98-1.7l26.69-15.41c.61-.35,1.36-.35,1.96,0l26.69,15.41c.6.35.98,1,.98,1.7v30.82c0,.7-.38,1.35-.98,1.7l-26.69,15.41c-.3.17-.64.26-.98.26ZM56.2,48.12c-.3,0-.59.08-.86.23l-26.69,15.41c-.53.3-.86.87-.86,1.48v30.82c0,.61.33,1.18.86,1.48l26.69,15.41c.52.3,1.19.3,1.71,0l26.69-15.41c.53-.3.86-.87.86-1.48v-30.82c0-.61-.33-1.18-.86-1.48l-26.69-15.41c-.26-.15-.56-.23-.86-.23ZM56.2,109.5l-.06-.04-24.92-14.38v-28.84l.06-.04,24.92-14.39.06.04,24.92,14.39v28.84l-.06.04-24.92,14.38ZM31.47,94.93l24.73,14.28,24.73-14.28v-28.56l-24.73-14.28-24.73,14.28v28.56Z"/>
  </g>
  <g>
    <path class="cls-2" d="M28.54,159.39l-26.69-15.41c-.57-.33-.92-.93-.92-1.59v-30.82c0-.66.35-1.26.92-1.59l26.69-15.41c.57-.33,1.27-.33,1.84,0l26.69,15.41c.57.33.92.93.92,1.59v30.82c0,.66-.35,1.26-.92,1.59l-26.69,15.41c-.28.16-.6.25-.92.25s-.63-.08-.92-.25ZM54.31,112.63l-24.86-14.35-24.85,14.35v28.7s24.85,14.35,24.85,14.35l24.86-14.35v-28.7Z"/>
    <path class="cls-2" d="M29.45,159.77c-.34,0-.68-.09-.98-.26l-26.69-15.41c-.61-.35-.98-1-.98-1.7v-30.82c0-.7.38-1.35.98-1.7l26.69-15.41c.61-.35,1.36-.35,1.96,0l26.69,15.41c.61.35.98,1,.98,1.7v30.82c0,.7-.38,1.35-.98,1.7l-26.69,15.41c-.3.17-.64.26-.98.26ZM28.6,159.29c.52.3,1.19.3,1.71,0l26.69-15.41c.53-.3.86-.87.86-1.48v-30.82c0-.61-.33-1.18-.86-1.48l-26.69-15.41c-.53-.3-1.18-.3-1.71,0L1.91,110.09c-.53.3-.86.87-.86,1.48v30.82c0,.61.33,1.18.86,1.48l26.69,15.41ZM29.45,155.82l-.06-.04-24.92-14.39v-28.84l.06-.04,24.92-14.39.06.04,24.92,14.39v28.84l-.06.04-24.92,14.39ZM4.72,141.26l24.73,14.28,24.73-14.28v-28.55l-24.73-14.28-24.73,14.28v28.55Z"/>
  </g>
  <g>
    <g id="Generative_Object-3" data-name="Generative Object">
      <g>
        <path class="cls-2" d="M33.5,28.78c.53,0,1.02-.34,1.17-.87.66-2.21-.16-4.61-2.03-5.96-1.88-1.35-4.41-1.37-6.29-.04-1.89,1.33-2.74,3.71-2.1,5.93.18.65.87,1.02,1.51.84.65-.19,1.03-.86.84-1.51-.35-1.22.12-2.53,1.15-3.25,1.04-.73,2.43-.72,3.45.02,1.03.74,1.48,2.05,1.11,3.27-.19.65.18,1.33.82,1.52.12.03.23.05.35.05Z"/>
        <path class="cls-2" d="M33.5,28.9c-.13,0-.26-.02-.39-.06-.35-.1-.63-.33-.8-.65s-.21-.68-.11-1.03c.35-1.16-.08-2.42-1.07-3.13-.98-.71-2.31-.72-3.31-.02-.99.7-1.44,1.95-1.11,3.12.1.35.06.71-.12,1.03-.18.32-.46.54-.81.64-.72.2-1.47-.22-1.67-.93-.65-2.27.22-4.71,2.15-6.07,1.93-1.36,4.52-1.34,6.44.04,1.92,1.38,2.75,3.83,2.08,6.09-.17.57-.7.96-1.29.96ZM29.47,23.25c.64,0,1.27.2,1.81.59,1.07.77,1.54,2.14,1.16,3.41-.08.28-.05.58.09.84.14.26.37.45.65.53.6.18,1.2-.18,1.37-.74.64-2.16-.15-4.5-1.98-5.82-1.83-1.32-4.3-1.34-6.15-.04-1.85,1.3-2.67,3.63-2.05,5.79.17.58.78.92,1.36.76.28-.08.52-.27.66-.52.14-.26.18-.55.1-.84-.36-1.27.12-2.63,1.2-3.39.54-.38,1.16-.56,1.78-.56Z"/>
      </g>
      <g>
        <path class="cls-2" d="M34.15,45.19c.44,0,.86-.24,1.08-.65.32-.6.09-1.34-.51-1.66-1.14-.6-2.24-.98-3.37-1.15-2.22-.33-4.28-.1-6.28.72l-.79.32c-.63.25-.93.97-.67,1.6s.97.93,1.6.67l.79-.32c1.59-.65,3.22-.83,5-.57.86.13,1.68.41,2.59.89.18.1.38.14.57.14Z"/>
        <path class="cls-2" d="M34.15,45.31c-.22,0-.44-.05-.63-.16-.89-.47-1.7-.75-2.55-.88-1.75-.27-3.36-.08-4.93.56l-.79.32c-.69.28-1.48-.05-1.76-.74-.28-.69.05-1.48.74-1.76l.79-.32c2.02-.83,4.1-1.06,6.35-.73,1.14.17,2.26.55,3.41,1.16.66.35.91,1.17.56,1.83-.23.44-.69.72-1.19.72ZM29.46,43.91c.51,0,1.02.04,1.55.12.87.13,1.71.42,2.63.91.16.08.33.13.51.13.41,0,.78-.22.97-.58.28-.54.08-1.2-.46-1.49-1.12-.6-2.21-.97-3.33-1.14-2.2-.33-4.24-.1-6.22.71l-.79.32c-.56.23-.83.87-.61,1.43s.87.83,1.43.61l.79-.32c1.14-.46,2.3-.69,3.51-.69Z"/>
      </g>
      <g>
        <path class="cls-2" d="M29.49,50.44c.15,0,.31-.03.45-.09.65-.26,1.14-.65,1.58-.99l.14-.11c1.2-.93,2.15-2.01,3.1-3.13.68-.79,1.13-1.54,1.46-2.4.07-.19.15-.38.23-.57.2-.48.41-.98.55-1.56.07-.28.13-.48.18-.64.2-.63.27-.98.19-2.04-.07-.87-.22-2-.82-3.12,0-.03,0-.06,0-.09-.01-.17-.03-.34-.07-.49-.16-.66-.82-1.06-1.48-.91-.65.16-1.06.81-.91,1.47v.12c.03.25.06.62.27,1.01.32.57.49,1.24.56,2.19.05.69.03.76-.08,1.11-.06.2-.14.44-.23.8-.1.39-.26.79-.43,1.2-.09.21-.18.42-.26.64-.23.6-.54,1.1-1.03,1.68-.9,1.05-1.73,1.99-2.74,2.78l-.15.12c-.19.15-.37.29-.55.41-.47-.31-1.25-.97-1.71-1.42l-.53-.53c-.28-.28-.53-.59-.78-.89-.16-.19-.32-.39-.49-.58-.41-.47-.71-.94-.94-1.48-.08-.18-.15-.35-.23-.53-.18-.4-.35-.77-.44-1.14-.1-.41-.19-.7-.26-.94-.15-.48-.17-.57-.11-1.31.07-.83.26-1.51.58-2.14.2-.38.2-.74.21-.95h0c.2-.54,0-1.17-.52-1.48-.58-.35-1.33-.16-1.68.42-.24.4-.25.79-.25,1.01-.44.88-.69,1.84-.79,2.93-.1,1.16,0,1.55.21,2.23.06.2.14.45.23.81.14.59.37,1.09.59,1.57.07.15.14.31.21.47.34.79.77,1.47,1.35,2.14.15.17.3.35.44.52.3.36.6.72.94,1.06l.53.53s2,1.99,3.21,2.26c.09.02.18.03.26.03Z"/>
        <path class="cls-2" d="M29.49,50.56c-.1,0-.2-.01-.29-.03-1.26-.28-3.25-2.27-3.27-2.29l-.53-.53c-.35-.35-.67-.73-.95-1.07-.14-.18-.29-.35-.44-.52-.6-.68-1.03-1.37-1.37-2.17-.07-.16-.13-.31-.2-.46-.21-.47-.45-.99-.6-1.6-.08-.34-.16-.58-.22-.78-.22-.73-.32-1.12-.22-2.3.09-1.1.35-2.07.79-2.95,0-.22.02-.63.27-1.04.19-.31.48-.53.83-.61.35-.09.71-.03,1.02.15.55.33.79,1,.58,1.61,0,.23-.02.59-.22.99-.32.61-.5,1.28-.57,2.09-.06.72-.04.79.1,1.26.08.26.17.55.27.95.09.35.25.72.43,1.11.09.19.17.36.24.54.23.53.52.99.92,1.45.16.19.32.37.47.56l.03.03c.24.29.49.6.77.87l.53.53c.42.42,1.14,1.03,1.62,1.36.14-.1.28-.21.43-.33l.19-.15c1-.78,1.83-1.71,2.73-2.77.48-.57.79-1.06,1.01-1.65.07-.2.15-.39.23-.58l.02-.06c.17-.41.33-.8.43-1.19.09-.36.17-.6.23-.8.11-.34.13-.41.08-1.07-.07-.93-.24-1.59-.55-2.14-.23-.41-.26-.8-.28-1.06v-.12c-.17-.7.27-1.43.99-1.6.73-.17,1.46.28,1.63,1,.04.17.06.35.07.5v.06c.61,1.13.76,2.27.83,3.14.08,1.08,0,1.45-.2,2.09-.05.14-.11.34-.18.63-.15.59-.35,1.09-.56,1.58l-.02.04c-.07.17-.14.35-.21.52-.34.88-.79,1.63-1.48,2.44-.95,1.12-1.91,2.2-3.12,3.15l-.14.11c-.44.35-.94.74-1.61,1-.16.06-.33.1-.5.1ZM23.62,34.4c-.09,0-.18.01-.27.03-.29.07-.53.25-.68.5-.22.37-.23.75-.23.95v.05c-.44.86-.69,1.81-.79,2.89-.1,1.14,0,1.51.2,2.19.07.22.14.47.23.81.14.58.37,1.07.58,1.55.07.16.14.32.21.47.33.78.75,1.45,1.33,2.11.15.17.3.35.44.53.27.33.59.71.93,1.05l.53.53s1.98,1.97,3.15,2.22c.21.04.44.03.65-.05.63-.25,1.11-.63,1.54-.96l.15-.11c1.19-.93,2.14-2,3.08-3.11.67-.78,1.11-1.51,1.44-2.37.07-.18.14-.35.21-.53l.02-.04c.2-.48.41-.97.55-1.54.07-.3.14-.5.19-.65.19-.61.26-.96.19-1.99-.06-.85-.22-1.97-.81-3.07v-.05s-.02-.09-.02-.09c-.01-.14-.03-.31-.07-.47-.14-.58-.73-.95-1.33-.81-.58.14-.95.73-.81,1.32v.14c.03.24.06.59.26.96.33.58.5,1.27.58,2.24.05.69.03.78-.09,1.16-.06.2-.14.44-.22.79-.1.4-.27.8-.44,1.22l-.02.06c-.08.19-.16.38-.23.58-.23.62-.55,1.13-1.05,1.72-.91,1.06-1.74,2.01-2.76,2.8l-.19.15c-.18.14-.35.27-.52.38l-.07.05-.07-.05c-.48-.33-1.27-.99-1.73-1.44l-.53-.53c-.29-.28-.54-.59-.78-.89l.07-.11-.1.08c-.15-.18-.31-.37-.47-.55-.42-.48-.72-.96-.96-1.52-.07-.18-.15-.35-.23-.52-.19-.41-.36-.79-.45-1.16-.1-.4-.18-.68-.26-.93-.15-.49-.18-.59-.11-1.36.07-.85.26-1.54.6-2.18.18-.35.19-.69.19-.89v-.04c.19-.5,0-1.05-.46-1.33-.17-.1-.37-.16-.56-.16Z"/>
      </g>
      <g>
        <path class="cls-2" d="M35.56,41.31c.46,0,.91-.26,1.11-.71.28-.61.02-1.34-.6-1.63l-1.09-.51c-2.59-1.2-7.78-1.31-10.48-.23l-1.67.67c-.63.25-.93.97-.68,1.59.25.63.97.93,1.59.68l1.67-.67c2.08-.84,6.55-.74,8.53.18l1.09.51c.17.08.34.11.51.11Z"/>
        <path class="cls-2" d="M35.56,41.44c-.2,0-.39-.04-.57-.13l-1.09-.51c-1.97-.91-6.38-1-8.43-.17l-1.67.67c-.69.28-1.48-.06-1.76-.75-.13-.33-.13-.7.01-1.03.14-.33.4-.59.74-.72l1.67-.67c2.73-1.1,7.97-.98,10.58.23l1.09.51c.33.15.58.42.7.76.12.34.11.71-.04,1.03-.22.48-.7.78-1.23.78ZM29.34,39.82c1.77,0,3.58.26,4.66.76l1.09.51c.15.07.3.1.46.1.43,0,.82-.25,1-.64.12-.27.14-.57.03-.84-.1-.28-.3-.5-.57-.62l-1.09-.51c-2.56-1.19-7.7-1.3-10.38-.23l-1.67.67c-.27.11-.49.32-.6.59-.12.27-.12.57,0,.84.23.56.87.84,1.43.61l1.67-.67c.97-.39,2.45-.58,3.97-.58Z"/>
      </g>
      <g>
        <path class="cls-2" d="M36.87,36.82c.45,0,.89-.25,1.1-.69.3-.61.05-1.34-.56-1.64-1.08-.53-2.95-3-3.4-4.27l-.41-1.15c-.23-.64-.93-.97-1.56-.74-.64.23-.97.93-.74,1.57l.41,1.15c.59,1.65,2.79,4.74,4.63,5.64.17.09.36.13.54.13Z"/>
        <path class="cls-2" d="M36.87,36.94c-.21,0-.41-.05-.59-.14-1.87-.92-4.1-4.05-4.69-5.71l-.41-1.15c-.25-.7.12-1.48.82-1.73.71-.24,1.48.12,1.72.82l.41,1.15c.45,1.25,2.28,3.68,3.34,4.2.67.33.94,1.14.62,1.81-.23.47-.69.76-1.21.76ZM32.45,28.39c-.12,0-.25.02-.37.06-.57.2-.87.83-.67,1.41l.41,1.15c.58,1.63,2.75,4.68,4.57,5.57.15.08.31.11.48.11.42,0,.8-.24.99-.62.27-.54.04-1.21-.5-1.47-1.1-.54-3-3.05-3.46-4.34l-.41-1.15c-.16-.45-.58-.73-1.04-.73Z"/>
      </g>
      <g>
        <path class="cls-2" d="M42.27,39.01l-.21-.02c-.45-.05-.91-.09-1.37-.23-1.47-.37-2.9-1.05-4.41-2.1-.07-.01-.28,0-.44,0-.65.03-1.63.07-2.95-.49-.39-.17-1.66-.42-2.14-.43-.13,0-.26-.02-.39-.03-.07,0-.16-.02-.18-.01h0c-.3.03-.58.02-.86.01-.11,0-.22,0-.34,0-1.13.02-2.14.19-3,.52-1.31.5-2.26.48-2.9.46-.12,0-.28,0-.37,0-1.16.77-2.45,1.54-3.98,1.97-.56.16-1.23.33-1.98.35h-.22c-.25.02-.49.03-.76,0-2.25-.2-3.62-1.59-3.67-3.71-.01-.55.04-1.01.18-1.48.7-2.43,2.74-4.71,5.44-6.08,1.49-.75,3.11-1.21,4.8-1.36l.17-.02c.26-.03.51-.05.79-.04l1.95.09c.32.02.63.16.84.39.64.69,1.16,1.19,1.77,1.56,1.23.74,1.49.82,2.3.35.69-.4,1.25-.74,1.71-1.23l.68-.71c.22-.23.52-.37.83-.38l1.44-.06c1.41-.06,2.96.18,4.49.68,2.43.8,4.45,2.25,5.85,4.18.85,1.18,1.33,2.32,1.45,3.5.14,1.38-.25,2.56-1.12,3.32-.76.67-1.76,1.01-2.96,1.01-.14,0-.29,0-.44-.02ZM35.1,28.78l-.94.04-.34.35c-.68.72-1.42,1.17-2.25,1.66-2.12,1.24-3.54.39-4.8-.36-.78-.47-1.42-1.06-1.96-1.63l-1.45-.07c-.14,0-.28.01-.42.03l-.21.02c-1.38.12-2.7.5-3.91,1.11-2.11,1.07-3.67,2.78-4.19,4.57-.07.23-.09.44-.08.74.01.62.2,1.21,1.44,1.32.15.01.28,0,.42,0h.29c.42-.02.84-.12,1.37-.27,1.24-.35,2.35-1.03,3.37-1.7.57-.38,1.17-.37,1.7-.36.52.01,1.11.03,1.98-.3,1.13-.43,2.42-.66,3.83-.68.17,0,.33,0,.49.01.16,0,.31.02.48,0,.31-.03.56,0,.74.02.05,0,.1.01.16.01.73.02,2.31.32,3.04.63.81.34,1.36.32,1.9.3.54-.03,1.21-.05,1.86.39,1.34.92,2.51,1.49,3.75,1.8.3.09.6.12.98.16l.17.02c.38.03,1.1,0,1.56-.4.34-.3.34-.9.3-1.23-.08-.74-.4-1.49-1-2.32-1.1-1.51-2.7-2.65-4.64-3.29-1.13-.37-2.26-.57-3.28-.57-.11,0-.22,0-.33,0Z"/>
        <path class="cls-2" d="M42.71,39.15c-.15,0-.29,0-.45-.02h0s-.21-.02-.21-.02c-.46-.05-.92-.1-1.39-.24-1.47-.37-2.92-1.05-4.42-2.1-.04,0-.14,0-.39,0-.67.03-1.67.07-3.01-.5-.37-.16-1.62-.41-2.09-.42-.14,0-.28-.02-.4-.03h-.05s-.07-.01-.1-.01c-.33.04-.64.02-.89.01-.11,0-.22,0-.33,0-1.12.02-2.11.19-2.96.51-1.34.5-2.31.48-2.95.47-.14,0-.25,0-.32,0-1.15.76-2.43,1.53-3.98,1.97-.57.16-1.25.34-2.02.35h-.21c-.24.02-.5.03-.78,0-2.32-.21-3.74-1.64-3.79-3.83-.01-.56.04-1.03.18-1.52.71-2.47,2.77-4.77,5.5-6.15,1.51-.76,3.14-1.23,4.85-1.38l.17-.02c.26-.03.52-.05.81-.04l1.95.09c.36.02.69.17.93.43.63.68,1.14,1.18,1.74,1.54,1.21.73,1.41.79,2.18.35.68-.39,1.23-.73,1.68-1.21l.68-.71c.24-.26.57-.4.92-.42l1.43-.06c1.42-.06,3,.18,4.54.69,2.45.81,4.5,2.27,5.92,4.23.87,1.2,1.35,2.36,1.48,3.56.15,1.42-.27,2.64-1.17,3.43-.79.69-1.81,1.04-3.04,1.04ZM42.28,38.89c1.36.09,2.47-.24,3.3-.97.84-.74,1.22-1.88,1.08-3.22-.12-1.15-.59-2.28-1.43-3.44-1.39-1.91-3.39-3.34-5.79-4.13-1.51-.5-3.05-.73-4.45-.68l-1.43.06c-.28.01-.55.13-.75.34l-.68.71c-.47.5-1.04.85-1.74,1.25-.87.5-1.16.41-2.43-.35-.62-.37-1.15-.88-1.79-1.58-.2-.21-.47-.34-.76-.35l-1.95-.09c-.27-.01-.52.01-.77.04l-.17.02c-1.68.15-3.28.6-4.76,1.35-2.67,1.36-4.68,3.6-5.38,6-.13.46-.19.91-.17,1.44.05,2.05,1.38,3.39,3.56,3.59.27.02.51.01.75,0h.22c.74-.03,1.4-.2,1.96-.35,1.53-.44,2.8-1.2,3.94-1.96l.06-.02c.08,0,.21,0,.38,0,.62,0,1.56.03,2.85-.46.87-.33,1.9-.51,3.04-.53.12,0,.23,0,.35,0,.31.01.56.02.84-.01.02,0,.08,0,.17,0h.05c.13.02.25.03.37.04.51.01,1.78.27,2.19.44,1.29.55,2.26.51,2.9.48.34-.02.43,0,.47,0l.05.02c1.49,1.04,2.92,1.72,4.37,2.08.45.14.91.18,1.34.23l.21.02ZM42.73,36.7c-.1,0-.18,0-.25,0l-.17-.02c-.37-.04-.69-.07-1-.16-1.23-.31-2.43-.88-3.78-1.81-.61-.42-1.26-.39-1.78-.37-.55.02-1.11.05-1.95-.31-.72-.3-2.27-.6-2.99-.62-.06,0-.11,0-.17-.02-.18-.02-.42-.05-.71-.02-.15.02-.28.01-.41,0h-.08c-.16-.01-.33-.01-.48-.02-1.4.02-2.68.25-3.79.67-.9.34-1.53.33-2.03.31-.52-.01-1.09-.02-1.63.34-1.03.68-2.15,1.37-3.4,1.72-.54.16-.96.25-1.4.26l-.35.02c-.12,0-.24.01-.37,0-1.34-.12-1.54-.8-1.56-1.44,0-.32.02-.54.09-.78.53-1.83,2.12-3.56,4.25-4.64,1.23-.62,2.56-1,3.96-1.12l.26-.03c.12-.01.26-.03.39-.02l1.5.07.03.04c.47.49,1.12,1.12,1.93,1.61,1.23.73,2.61,1.57,4.67.36.82-.48,1.55-.93,2.22-1.63l.37-.39.99-.04c1.12-.05,2.4.15,3.66.57,1.96.65,3.58,1.8,4.7,3.34.61.84.94,1.62,1.02,2.38.04.35.04,1-.34,1.33-.42.37-1.02.44-1.41.44ZM36.14,34.07c.46,0,1,.07,1.52.42,1.34.92,2.49,1.47,3.71,1.78.29.09.59.12.96.16l.17.02c.29.02,1.01.03,1.47-.37.31-.27.29-.88.26-1.12-.07-.71-.39-1.45-.97-2.25-1.08-1.49-2.67-2.62-4.58-3.25-1.23-.41-2.47-.6-3.57-.55l-.89.04-.3.32c-.69.73-1.44,1.19-2.28,1.68-2.19,1.27-3.64.4-4.92-.36-.82-.49-1.47-1.12-1.95-1.61l-1.4-.07c-.12,0-.23,0-.35.02l-.26.03c-1.37.12-2.67.49-3.87,1.1-2.08,1.05-3.62,2.73-4.13,4.49-.06.22-.08.42-.08.71.01.52.13,1.09,1.33,1.2.11,0,.22,0,.34,0l.35-.02c.41,0,.82-.1,1.34-.25,1.22-.35,2.32-1.02,3.33-1.69.6-.4,1.22-.39,1.76-.38.49.01,1.09.03,1.95-.29,1.14-.43,2.44-.67,3.88-.69.17,0,.34,0,.5.01h.08c.13,0,.25.02.38,0,.32-.04.59,0,.77.02.05,0,.09.01.14.01.74.02,2.34.32,3.09.64.79.33,1.32.31,1.84.29.13,0,.26-.01.41-.01Z"/>
      </g>
      <g>
        <path class="cls-2" d="M27.54,23.64c.19,0,.38-.04.56-.14.6-.31.83-1.05.52-1.65l-.24-.46c-1.03-1.99-2.05-3.56-4.86-4.04-.19-.08-.35-.11-.47-.13-.63-.23-1.35.09-1.58.72-.24.63.08,1.34.71,1.57.12.04.25.08.38.1.13.08.25.1.41.13,1.77.27,2.32,1.01,3.23,2.78l.24.47c.22.42.65.66,1.09.66Z"/>
        <path class="cls-2" d="M27.54,23.77c-.51,0-.97-.28-1.2-.73l-.24-.46c-.91-1.76-1.42-2.45-3.14-2.71-.15-.02-.29-.05-.43-.13-.15-.03-.27-.06-.37-.1-.69-.26-1.05-1.04-.79-1.74.26-.7,1.04-1.06,1.74-.8.13.02.28.06.47.13,2.84.49,3.87,2.08,4.92,4.1l.24.46c.34.66.08,1.48-.58,1.82-.19.1-.41.15-.62.15ZM22.63,17.27c-.46,0-.88.27-1.04.72-.21.57.08,1.2.64,1.41.1.04.21.07.36.1h.04c.12.08.23.1.36.12,1.83.28,2.39,1.04,3.32,2.84l.24.46c.19.37.56.59.98.59.17,0,.35-.04.51-.12.54-.28.75-.95.47-1.48l-.24-.46c-1.02-1.96-2.01-3.5-4.77-3.98-.21-.08-.38-.12-.47-.13-.13-.05-.27-.07-.4-.07Z"/>
      </g>
      <g>
        <path class="cls-2" d="M22.03,36.86c.22,0,.44-.06.64-.18l.81-.49c.57-.35.95-.8,1.28-1.19l.22-.25c1.23-1.41,2.16-3.05,2.75-4.89.21-.64-.15-1.33-.79-1.54-.65-.21-1.33.15-1.54.79-.49,1.53-1.23,2.85-2.26,4.02l-.25.29c-.25.3-.45.53-.68.67l-.81.49c-.58.35-.76,1.11-.41,1.68.23.38.63.59,1.05.59Z"/>
        <path class="cls-2" d="M22.03,36.99c-.48,0-.91-.24-1.15-.65-.19-.31-.25-.67-.16-1.02.08-.35.3-.65.61-.83l.81-.49c.21-.13.4-.35.64-.64l.26-.3c1.02-1.16,1.75-2.46,2.23-3.98.23-.71.99-1.1,1.7-.87.34.11.62.35.79.67.17.32.19.69.08,1.03-.59,1.85-1.53,3.51-2.77,4.93l-.21.25c-.34.4-.72.86-1.31,1.21l-.81.49c-.21.13-.45.2-.7.2ZM26.55,28.39c-.47,0-.9.3-1.05.76-.5,1.55-1.24,2.88-2.28,4.06l-.25.29c-.26.31-.46.55-.71.7l-.81.49c-.25.15-.43.4-.5.68-.07.29-.02.58.13.83.2.33.55.53.94.53.2,0,.4-.06.57-.16l.81-.49c.55-.34.92-.77,1.24-1.16l.22-.26c1.22-1.4,2.14-3.03,2.72-4.84.09-.28.07-.58-.07-.84s-.36-.46-.64-.54c-.11-.04-.22-.05-.33-.05Z"/>
      </g>
      <g>
        <path class="cls-2" d="M31.41,23.64c.43,0,.84-.22,1.07-.62l.39-.69c1-1.77,1.34-2.36,3.61-2.71.67-.1,1.13-.73,1.03-1.4-.1-.67-.73-1.13-1.4-1.03-3.45.53-4.3,2.03-5.37,3.92l-.39.68c-.33.59-.13,1.34.46,1.67.19.11.4.16.6.16Z"/>
        <path class="cls-2" d="M31.41,23.77c-.23,0-.46-.06-.67-.18-.65-.37-.87-1.19-.51-1.84l.39-.68c1.09-1.93,1.95-3.45,5.46-3.99.74-.11,1.43.4,1.54,1.13.11.73-.39,1.42-1.13,1.54-2.21.34-2.51.87-3.52,2.65l-.39.69c-.24.42-.69.68-1.17.68ZM36.29,17.32c-.05,0-.11,0-.17.01-3.39.52-4.22,1.99-5.28,3.86l-.39.68c-.3.53-.12,1.2.41,1.5.17.09.35.14.54.14.4,0,.76-.21.96-.56l.39-.69c.99-1.76,1.37-2.41,3.7-2.77.6-.09,1.01-.66.92-1.25-.08-.54-.55-.93-1.09-.93Z"/>
      </g>
    </g>
    <g>
      <path class="cls-2" d="M28.54,66.2L1.84,50.79c-.57-.33-.92-.93-.92-1.59v-30.82c0-.66.35-1.26.92-1.59L28.54,1.37c.57-.33,1.27-.33,1.84,0l26.69,15.41c.57.33.92.93.92,1.59v30.82c0,.66-.35,1.26-.92,1.59l-26.69,15.41c-.28.16-.6.25-.92.25s-.63-.08-.92-.25ZM54.31,19.44L29.45,5.09,4.6,19.44v28.7s24.85,14.35,24.85,14.35l24.86-14.35v-28.7Z"/>
      <path class="cls-2" d="M29.45,66.57c-.34,0-.68-.09-.98-.26L1.78,50.9c-.61-.35-.98-1-.98-1.7v-30.82c0-.7.38-1.35.98-1.7L28.47,1.27c.61-.35,1.36-.35,1.96,0l26.69,15.41c.61.35.98,1,.98,1.7v30.82c0,.7-.38,1.35-.98,1.7l-26.69,15.41c-.3.17-.64.26-.98.26ZM28.6,66.09c.52.3,1.19.3,1.71,0l26.69-15.41c.53-.3.86-.87.86-1.48v-30.82c0-.61-.33-1.18-.86-1.48L30.31,1.48c-.53-.3-1.18-.3-1.71,0L1.91,16.89c-.53.3-.86.87-.86,1.48v30.82c0,.61.33,1.18.86,1.48l26.69,15.41ZM29.45,62.63l-.06-.04-24.92-14.39v-28.84l.06-.04L29.45,4.94l.06.04,24.92,14.39v28.84l-.06.04-24.92,14.38ZM4.72,48.06l24.73,14.28,24.73-14.28v-28.56L29.45,5.23,4.72,19.51v28.55Z"/>
    </g>
  </g>
  <g>
    <path d="M103.93,28.04h-9.79v-11.04h32v11.04h-9.71v40.46h-12.51V28.04Z"/>
    <path d="M150.21,46.8h-8.61v21.7h-12.51V17h12.51v18.76h8.61v-18.76h12.51v51.5h-12.51v-21.7Z"/>
    <path d="M165.66,17h28.03v11.04h-15.52v9.2h13.61v10.3h-13.61v9.93h15.52v11.04h-28.03V17Z"/>
    <path d="M233.94,46.8h-8.61v21.7h-12.51V17h12.51v18.76h8.61v-18.76h12.51v51.5h-12.51v-21.7Z"/>
    <path d="M249.4,17h12.51v51.5h-12.51V17Z"/>
    <path d="M264.11,17h12.8l6.33,32.81,6.18-32.81h12.43l-12.51,51.5h-12.73l-12.51-51.5Z"/>
    <path d="M304.07,17h28.03v11.04h-15.52v9.2h13.61v10.3h-13.61v9.93h15.52v11.04h-28.03V17Z"/>
    <path d="M94.14,90.58h10.3c16.26,0,23.03,9.64,23.03,25.75s-6.77,25.75-23.03,25.75h-10.3v-51.5ZM114.52,116.99c0-9.93-2.21-14.79-7.87-15.01v28.69c5.59-.07,7.87-4.93,7.87-13.68Z"/>
    <path d="M130.05,90.58h12.51v51.5h-12.51v-51.5Z"/>
    <path d="M144.4,137.82l5.15-10.15c2.5,2.06,6.25,3.75,9.86,3.75,3.38,0,5.15-2.06,5.15-4.49,0-7.72-18.03-7.95-18.03-22,0-9.56,6.33-15.08,15.45-15.08,5.74,0,10.59,1.77,13.02,4.05l-5.08,10.15c-2.06-1.69-4.78-2.8-7.21-2.8-2.65,0-4.05,1.4-4.05,3.39,0,5.81,18.02,6.69,18.02,21.04,0,11.11-6.77,17.14-17.36,17.14-5.89,0-10.74-1.54-14.94-5Z"/>
    <path d="M178.17,116.63c.07-17.22,7.95-26.78,19.35-26.78,5.44,0,9.71,1.4,12.8,3.6l-5.08,10.15c-2.13-1.54-4.12-2.36-6.18-2.36-4.93,0-7.65,4.93-7.65,14.13v1.18c0,9.93,2.8,14.86,7.8,14.86,2.13,0,4.34-.66,7.06-3.09l5.15,10.15c-4.19,3.09-7.73,4.34-13.76,4.34-11.99,0-19.57-9.56-19.5-26.19Z"/>
    <path d="M209.96,116.33c0-16.85,6.69-26.49,18.69-26.49s18.69,9.64,18.69,26.49-6.77,26.49-18.69,26.49-18.69-9.64-18.69-26.49ZM228.65,131.42c3.46,0,5.45-4.93,5.45-13.39v-3.38c0-8.46-1.99-13.39-5.45-13.39s-5.44,4.93-5.44,13.39v3.38c0,8.46,1.99,13.39,5.44,13.39Z"/>
    <path d="M245.5,90.58h12.8l6.33,32.81,6.18-32.81h12.43l-12.51,51.5h-12.73l-12.51-51.5Z"/>
    <path d="M285.45,90.58h28.03v11.04h-15.52v9.2h13.61v10.3h-13.61v9.93h15.52v11.04h-28.03v-51.5Z"/>
    <path d="M316.43,90.58h14.2c11.33,0,18.03,5.44,18.03,15.08,0,5.66-3.02,10.74-8.9,13.32l9.34,23.1h-13.68l-6.84-22,.37,4.42v17.58h-12.51v-51.5ZM330.48,111.99c3.31,0,4.71-2.94,4.71-4.49v-.88c0-2.21-1.4-5-4.56-5h-1.69v10.37h1.54Z"/>
    <path d="M359.32,122.73l-12.8-32.37h12.88l5.74,18.54.73,3.46.74-3.46,5.66-18.54h12.43l-12.87,32.59v19.13h-12.51v-19.35Z"/>
  </g>
</svg>